HIERARCHY
ROOT newVegas:Hips
{
	OFFSET 0.000000 96.479958 0.000000
	CHANNELS 6 Xposition Yposition Zposition Xrotation Yrotation Zrotation
	JOINT newVegas:Pelvis
	{
		OFFSET 0.000000 0.000000 0.000000
		CHANNELS 3 Xrotation Yrotation Zrotation
		JOINT newVegas:LeftUpLeg
		{
			OFFSET 18.735201 -5.666702 -4.541200
			CHANNELS 3 Xrotation Yrotation Zrotation
			JOINT newVegas:LeftLeg
			{
				OFFSET -0.021200 -31.938179 0.493100
				CHANNELS 3 Xrotation Yrotation Zrotation
				JOINT newVegas:LeftFoot
				{
					OFFSET 0.021200 -31.938179 -4.336299
					CHANNELS 3 Xrotation Yrotation Zrotation
					JOINT newVegas:LeftToeBase
					{
						OFFSET 0.943001 -26.722000 15.023500
						CHANNELS 3 Xrotation Yrotation Zrotation
						End Site
						{
							OFFSET 0.000000 30.670183 0.000000
						}
					}
				}
				JOINT newVegas:Left_PantLeg
				{
					OFFSET 0.663870 -9.044666 -1.108900
					CHANNELS 3 Xrotation Yrotation Zrotation
					End Site
					{
						OFFSET 1.415995 20.635357 0.000000
					}
				}
			}
		}
		JOINT newVegas:RightUpLeg
		{
			OFFSET -18.735201 -5.666702 -4.541200
			CHANNELS 3 Xrotation Yrotation Zrotation
			JOINT newVegas:RightLeg
			{
				OFFSET 0.018946 -31.938133 0.493100
				CHANNELS 3 Xrotation Yrotation Zrotation
				JOINT newVegas:RightFoot
				{
					OFFSET -0.018946 -31.938126 -4.336299
					CHANNELS 3 Xrotation Yrotation Zrotation
					JOINT newVegas:RightToeBase
					{
						OFFSET -0.943001 -26.722004 15.023500
						CHANNELS 3 Xrotation Yrotation Zrotation
						End Site
						{
							OFFSET 0.000000 30.670187 0.000000
						}
					}
				}
				JOINT newVegas:Right_PantLeg
				{
					OFFSET -0.661674 -9.044716 -1.108900
					CHANNELS 3 Xrotation Yrotation Zrotation
					End Site
					{
						OFFSET -1.415958 20.635269 0.000000
					}
				}
			}
		}
	}
	JOINT newVegas:Spine
	{
		OFFSET 0.000000 10.199997 -0.299500
		CHANNELS 3 Xrotation Yrotation Zrotation
		JOINT newVegas:Spine1
		{
			OFFSET 0.000000 11.900002 -1.516600
			CHANNELS 3 Xrotation Yrotation Zrotation
			JOINT newVegas:Spine2
			{
				OFFSET 0.000000 13.600006 -2.842500
				CHANNELS 3 Xrotation Yrotation Zrotation
				JOINT newVegas:Neck
				{
					OFFSET 0.000000 9.624100 -2.890100
					CHANNELS 3 Xrotation Yrotation Zrotation
					JOINT newVegas:Head
					{
						OFFSET 0.000000 14.068802 -1.351900
						CHANNELS 3 Xrotation Yrotation Zrotation
						JOINT newVegas:Hair_Back
						{
							OFFSET 0.000000 3.231903 -17.524799
							CHANNELS 3 Xrotation Yrotation Zrotation
							End Site
							{
								OFFSET 0.000000 19.849884 0.000000
							}
						}
						JOINT newVegas:Hair_Front
						{
							OFFSET 0.000000 31.260406 4.573800
							CHANNELS 3 Xrotation Yrotation Zrotation
							JOINT newVegas:Hair_Front1
							{
								OFFSET 0.000000 2.284103 11.993300
								CHANNELS 3 Xrotation Yrotation Zrotation
								JOINT newVegas:Hair_Front2
								{
									OFFSET 0.000000 2.284103 11.993300
									CHANNELS 3 Xrotation Yrotation Zrotation
									End Site
									{
										OFFSET 0.000000 12.208862 0.000000
									}
								}
							}
						}
						JOINT newVegas:Jowel
						{
							OFFSET 0.000000 -7.458206 6.864100
							CHANNELS 3 Xrotation Yrotation Zrotation
							End Site
							{
								OFFSET 0.000000 19.849884 0.000000
							}
						}
					}
				}
				JOINT newVegas:LeftShoulder
				{
					OFFSET 15.263000 10.923401 -0.547700
					CHANNELS 3 Xrotation Yrotation Zrotation
					JOINT newVegas:LeftArm
					{
						OFFSET 25.438599 -2.830597 -13.032500
						CHANNELS 3 Xrotation Yrotation Zrotation
						JOINT newVegas:LeftForeArm
						{
							OFFSET 29.960503 0.000000 0.000000
							CHANNELS 3 Xrotation Yrotation Zrotation
							JOINT newVegas:LeftHand
							{
								OFFSET 27.849251 0.000000 0.000000
								CHANNELS 3 Xrotation Yrotation Zrotation
								JOINT newVegas:LeftHandThumb1
								{
									OFFSET 4.487587 -3.305161 6.305391
									CHANNELS 3 Xrotation Yrotation Zrotation
									JOINT newVegas:LeftHandThumb2
									{
										OFFSET 5.480453 -3.164139 3.164143
										CHANNELS 3 Xrotation Yrotation Zrotation
										JOINT newVegas:LeftHandThumb3
										{
											OFFSET 5.159721 -2.978973 2.978967
											CHANNELS 3 Xrotation Yrotation Zrotation
											End Site
											{
												OFFSET 2.494507 5.926697 1.738678
											}
										}
									}
								}
								JOINT newVegas:LeftHandIndex1
								{
									OFFSET 18.578728 -0.527832 5.208049
									CHANNELS 3 Xrotation Yrotation Zrotation
									JOINT newVegas:LeftHandIndex2
									{
										OFFSET 3.192009 0.000000 0.000000
										CHANNELS 3 Xrotation Yrotation Zrotation
										JOINT newVegas:LeftHandIndex3
										{
											OFFSET 3.835129 0.000000 0.000000
											CHANNELS 3 Xrotation Yrotation Zrotation
											End Site
											{
												OFFSET -0.034599 3.816971 0.371180
											}
										}
									}
								}
								JOINT newVegas:LeftHandMiddle1
								{
									OFFSET 18.476105 0.000000 0.000000
									CHANNELS 3 Xrotation Yrotation Zrotation
									JOINT newVegas:LeftHandMiddle2
									{
										OFFSET 3.324875 0.000000 0.000000
										CHANNELS 3 Xrotation Yrotation Zrotation
										JOINT newVegas:LeftHandMiddle3
										{
											OFFSET 4.596550 0.000000 0.000000
											CHANNELS 3 Xrotation Yrotation Zrotation
											End Site
											{
												OFFSET 0.057701 4.578827 0.399218
											}
										}
									}
								}
								JOINT newVegas:LeftHandRing1
								{
									OFFSET 17.732719 0.121887 -4.201567
									CHANNELS 3 Xrotation Yrotation Zrotation
									JOINT newVegas:LeftHandRing2
									{
										OFFSET 2.733170 0.000000 0.000000
										CHANNELS 3 Xrotation Yrotation Zrotation
										JOINT newVegas:LeftHandRing3
										{
											OFFSET 3.178268 0.000000 0.000000
											CHANNELS 3 Xrotation Yrotation Zrotation
											End Site
											{
												OFFSET 0.119102 3.170624 0.185394
											}
										}
									}
								}
								JOINT newVegas:LeftHandPinky1
								{
									OFFSET 15.989624 -0.606689 -7.535461
									CHANNELS 3 Xrotation Yrotation Zrotation
									JOINT newVegas:LeftHandPinky2
									{
										OFFSET 2.538986 0.000000 0.000000
										CHANNELS 3 Xrotation Yrotation Zrotation
										JOINT newVegas:LeftHandPinky3
										{
											OFFSET 2.593102 0.000000 0.000000
											CHANNELS 3 Xrotation Yrotation Zrotation
											End Site
											{
												OFFSET -0.150902 2.584198 0.152708
											}
										}
									}
								}
							}
							JOINT newVegas:Left_Sleeve
							{
								OFFSET 0.267448 -0.649796 0.577675
								CHANNELS 3 Xrotation Yrotation Zrotation
								End Site
								{
									OFFSET 0.000000 15.991241 0.000000
								}
							}
							JOINT newVegas:Left_CapeC
							{
								OFFSET 15.715958 -8.608795 -6.935905
								CHANNELS 3 Xrotation Yrotation Zrotation
								JOINT newVegas:Left_CapeC1
								{
									OFFSET 0.000000 -8.688499 0.000000
									CHANNELS 3 Xrotation Yrotation Zrotation
									End Site
									{
										OFFSET 0.000000 8.688499 0.000000
									}
								}
							}
						}
						JOINT newVegas:Left_CapeB
						{
							OFFSET 26.118385 -8.608795 -7.079235
							CHANNELS 3 Xrotation Yrotation Zrotation
							JOINT newVegas:Left_CapeB1
							{
								OFFSET 0.000000 -8.688499 0.000000
								CHANNELS 3 Xrotation Yrotation Zrotation
								End Site
								{
									OFFSET 0.000000 8.688499 0.000000
								}
							}
						}
						JOINT newVegas:Left_CapeA
						{
							OFFSET 5.115639 -8.608795 -10.395809
							CHANNELS 3 Xrotation Yrotation Zrotation
							JOINT newVegas:Left_CapeA1
							{
								OFFSET 0.000000 -8.688499 0.000000
								CHANNELS 3 Xrotation Yrotation Zrotation
								End Site
								{
									OFFSET 0.000000 8.688499 0.000000
								}
							}
						}
					}
				}
				JOINT newVegas:RightShoulder
				{
					OFFSET -15.263000 10.923401 -0.547700
					CHANNELS 3 Xrotation Yrotation Zrotation
					JOINT newVegas:RightArm
					{
						OFFSET -25.438599 -2.830597 -13.032500
						CHANNELS 3 Xrotation Yrotation Zrotation
						JOINT newVegas:RightForeArm
						{
							OFFSET -29.960503 0.000000 0.000000
							CHANNELS 3 Xrotation Yrotation Zrotation
							JOINT newVegas:RightHand
							{
								OFFSET -27.849251 0.000000 0.000000
								CHANNELS 3 Xrotation Yrotation Zrotation
								JOINT newVegas:RightHandThumb1
								{
									OFFSET -4.487587 -3.305161 6.305391
									CHANNELS 3 Xrotation Yrotation Zrotation
									JOINT newVegas:RightHandThumb2
									{
										OFFSET -5.480453 -3.164139 3.164143
										CHANNELS 3 Xrotation Yrotation Zrotation
										JOINT newVegas:RightHandThumb3
										{
											OFFSET -5.159721 -2.978973 2.978967
											CHANNELS 3 Xrotation Yrotation Zrotation
											End Site
											{
												OFFSET -2.494507 5.926697 1.738678
											}
										}
									}
								}
								JOINT newVegas:RightHandIndex1
								{
									OFFSET -18.578728 -0.527832 5.208049
									CHANNELS 3 Xrotation Yrotation Zrotation
									JOINT newVegas:RightHandIndex2
									{
										OFFSET -3.192009 0.000000 0.000000
										CHANNELS 3 Xrotation Yrotation Zrotation
										JOINT newVegas:RightHandIndex3
										{
											OFFSET -3.835129 0.000000 0.000000
											CHANNELS 3 Xrotation Yrotation Zrotation
											End Site
											{
												OFFSET 0.034599 3.816971 0.371180
											}
										}
									}
								}
								JOINT newVegas:RightHandMiddle1
								{
									OFFSET -18.476105 0.000000 0.000000
									CHANNELS 3 Xrotation Yrotation Zrotation
									JOINT newVegas:RightHandMiddle2
									{
										OFFSET -3.324875 0.000000 0.000000
										CHANNELS 3 Xrotation Yrotation Zrotation
										JOINT newVegas:RightHandMiddle3
										{
											OFFSET -4.596550 0.000000 0.000000
											CHANNELS 3 Xrotation Yrotation Zrotation
											End Site
											{
												OFFSET -0.057701 4.578827 0.399218
											}
										}
									}
								}
								JOINT newVegas:RightHandRing1
								{
									OFFSET -17.732719 0.121887 -4.201567
									CHANNELS 3 Xrotation Yrotation Zrotation
									JOINT newVegas:RightHandRing2
									{
										OFFSET -2.733170 0.000000 0.000000
										CHANNELS 3 Xrotation Yrotation Zrotation
										JOINT newVegas:RightHandRing3
										{
											OFFSET -3.178268 0.000000 0.000000
											CHANNELS 3 Xrotation Yrotation Zrotation
											End Site
											{
												OFFSET -0.119102 3.170624 0.185394
											}
										}
									}
								}
								JOINT newVegas:RightHandPinky1
								{
									OFFSET -15.989624 -0.606689 -7.535461
									CHANNELS 3 Xrotation Yrotation Zrotation
									JOINT newVegas:RightHandPinky2
									{
										OFFSET -2.538986 0.000000 0.000000
										CHANNELS 3 Xrotation Yrotation Zrotation
										JOINT newVegas:RightHandPinky3
										{
											OFFSET -2.593102 0.000000 0.000000
											CHANNELS 3 Xrotation Yrotation Zrotation
											End Site
											{
												OFFSET 0.150902 2.584198 0.152708
											}
										}
									}
								}
							}
							JOINT newVegas:Right_CapeC
							{
								OFFSET -15.715958 -8.608795 -6.935905
								CHANNELS 3 Xrotation Yrotation Zrotation
								JOINT newVegas:Right_CapeC1
								{
									OFFSET 0.000000 -8.688499 0.000000
									CHANNELS 3 Xrotation Yrotation Zrotation
									End Site
									{
										OFFSET 0.000000 8.688499 0.000000
									}
								}
							}
							JOINT newVegas:Right_Sleeve
							{
								OFFSET -0.267448 -0.649994 0.577675
								CHANNELS 3 Xrotation Yrotation Zrotation
								End Site
								{
									OFFSET 0.000000 15.991302 0.000000
								}
							}
						}
						JOINT newVegas:Right_CapeA
						{
							OFFSET -5.115540 -8.608795 -10.395824
							CHANNELS 3 Xrotation Yrotation Zrotation
							JOINT newVegas:Right_CapeA1
							{
								OFFSET 0.000000 -8.688499 0.000000
								CHANNELS 3 Xrotation Yrotation Zrotation
								End Site
								{
									OFFSET 0.000000 8.688499 0.000000
								}
							}
						}
						JOINT newVegas:Right_CapeB
						{
							OFFSET -26.118187 -8.608795 -7.079266
							CHANNELS 3 Xrotation Yrotation Zrotation
							JOINT newVegas:Right_CapeB1
							{
								OFFSET 0.000000 -8.688499 0.000000
								CHANNELS 3 Xrotation Yrotation Zrotation
								End Site
								{
									OFFSET 0.000000 8.688499 0.000000
								}
							}
						}
					}
				}
				JOINT newVegas:Left_Collar
				{
					OFFSET 18.625099 8.655502 8.828100
					CHANNELS 3 Xrotation Yrotation Zrotation
					JOINT newVegas:Left_Collar1
					{
						OFFSET 14.783401 10.540405 -1.259500
						CHANNELS 3 Xrotation Yrotation Zrotation
						End Site
						{
							OFFSET 0.000000 18.199875 0.000000
						}
					}
				}
				JOINT newVegas:Collar_Back
				{
					OFFSET 0.000000 15.630707 -20.132601
					CHANNELS 3 Xrotation Yrotation Zrotation
					End Site
					{
						OFFSET 0.000000 22.523010 0.000000
					}
				}
				JOINT newVegas:Left_Peck
				{
					OFFSET 17.239599 -5.132599 25.482599
					CHANNELS 3 Xrotation Yrotation Zrotation
					End Site
					{
						OFFSET 0.000000 22.523010 0.000000
					}
				}
				JOINT newVegas:Right_Peck
				{
					OFFSET -17.239599 -5.132202 25.482599
					CHANNELS 3 Xrotation Yrotation Zrotation
					End Site
					{
						OFFSET 0.000000 22.523010 0.000000
					}
				}
				JOINT newVegas:Right_Collar
				{
					OFFSET -18.625099 8.655792 8.828100
					CHANNELS 3 Xrotation Yrotation Zrotation
					JOINT newVegas:Right_Collar1
					{
						OFFSET -14.783401 10.539993 -1.259500
						CHANNELS 3 Xrotation Yrotation Zrotation
						End Site
						{
							OFFSET 0.000000 18.199631 0.000000
						}
					}
				}
			}
		}
		JOINT newVegas:Belly
		{
			OFFSET 0.000000 -6.540398 9.014299
			CHANNELS 3 Xrotation Yrotation Zrotation
			End Site
			{
				OFFSET 0.000000 11.566666 0.000000
			}
		}
	}
	JOINT newVegas:ElvisFacialAnim_Joint
	{
		OFFSET 1.000000 -95.330101 -8.825800
		CHANNELS 3 Xrotation Yrotation Zrotation
		End Site
		{
			OFFSET 0.000000 35.315800 0.000000
		}
	}
}
MOTION
Frames: 4
Frame Time: 0.033333
-1.773015 92.652824 3.070000 -14.997024 -29.127840 -5.915893 0.000001 0.000002 0.000000 -21.726859 41.891661 31.794971 29.210520 -0.836205 -0.990762 -2.656324 1.935975 -6.156935 0.000000 -0.000000 -0.000000 0.000000 0.000001 0.000000 6.384928 5.351071 -7.010962 33.002231 0.100168 1.181714 -24.498936 -18.001677 5.269227 0.000000 -0.000002 0.000000 0.000001 0.000002 -0.000001 7.991401 -0.090017 -0.225204 16.413459 -0.125532 -0.745990 16.413501 -0.192908 -0.721093 0.160369 2.999858 0.240066 0.160388 2.999859 0.240072 0.000001 0.000002 -0.000000 0.160449 2.999861 0.240067 0.160367 2.999861 0.240066 -0.000002 0.000000 -0.000000 0.000001 0.000002 -0.000000 -37.571067 -4.822509 1.545823 -41.628347 -7.015741 -61.684354 0.000064 -64.993942 0.000072 -119.359591 1.121080 32.548450 4.709223 9.560387 3.111991 19.473194 -1.474932 7.636922 -0.000000 -0.000000 -0.000006 -0.212808 3.933719 -36.747125 2.942132 5.078895 -60.144617 -0.000002 -0.000001 -0.000000 0.405922 5.507040 -52.453165 3.387135 5.308595 -65.057484 -0.000004 -0.000001 -0.000002 -0.074393 5.736761 -61.061434 4.055025 5.569497 -72.094942 0.000001 -0.000004 -0.000007 -6.565551 4.545165 -72.425236 3.299622 5.267187 -64.107835 -0.000000 -0.000003 0.000001 -0.000001 -0.000002 0.000001 -0.000001 -0.000002 0.000001 -0.000001 -0.000001 0.000002 -0.000001 -0.000003 0.000001 -0.000001 -0.000003 0.000001 -0.000001 -0.000003 0.000001 -0.000002 -0.000003 0.000000 -41.176284 -8.605645 -9.942307 -46.819714 58.242970 100.948721 -0.001257 98.442997 0.001227 -52.463134 -17.216578 -29.273095 8.377136 -4.904133 11.021989 21.620194 -18.183910 -18.379206 0.000001 -0.000002 -0.000001 -0.920011 1.683584 12.434956 0.748113 -2.533470 32.898289 -0.000000 0.000000 0.000002 3.413063 -7.186252 51.650249 6.296801 -4.359574 110.634680 0.000000 0.000000 -0.000000 -3.349031 -2.600406 57.010544 5.440874 -4.590870 99.698168 -0.000000 0.000002 -0.000000 -3.996422 -3.303937 64.593850 4.058807 -4.618633 82.610516 -0.000000 0.000003 0.000000 0.000001 0.000003 0.000000 0.000001 -0.000001 -0.000002 0.000001 0.000002 0.000002 -0.000002 -0.000003 0.000002 -0.000002 -0.000002 0.000003 -0.000002 -0.000003 0.000002 -0.000002 -0.000002 0.000004 0.000002 -0.000003 -0.000000 0.000002 -0.000003 -0.000000 0.000002 -0.000003 -0.000000 0.000002 -0.000003 -0.000000 0.000002 -0.000003 -0.000000 0.000002 -0.000003 -0.000000 0.000002 -0.000003 -0.000000 0.000000 -0.000001 -0.000000 0.000001 0.000002 0.000000 
-1.788797 92.661247 3.084349 -14.967598 -29.138977 -5.890187 -0.000001 0.000001 -0.000000 -21.677547 41.916714 31.750500 29.129176 -0.825870 -0.991794 -2.625336 1.935269 -6.174604 -0.000000 -0.000002 -0.000000 -0.000000 -0.000001 -0.000000 6.392027 5.345137 -7.014162 32.960382 0.100419 1.166134 -24.490697 -18.001447 5.269946 -0.000000 0.000000 0.000000 0.000001 0.000000 -0.000001 7.932650 -0.070245 -0.257752 16.401900 -0.118987 -0.749711 16.401927 -0.187523 -0.722492 0.157412 2.999322 0.241644 0.157387 2.999316 0.241651 -0.000000 0.000000 0.000000 0.157340 2.999319 0.241651 0.157493 2.999314 0.241646 0.000000 -0.000000 -0.000000 -0.000000 0.000000 0.000000 -37.569336 -4.735004 1.582168 -41.700275 -7.252541 -61.799190 0.000096 -64.611185 0.000097 -119.389699 1.167442 32.406413 4.709224 9.560387 3.111993 19.523411 -1.325342 7.619126 0.000003 0.000002 -0.000006 -0.204312 3.943677 -36.726221 2.939305 5.077284 -60.112502 -0.000002 -0.000002 0.000000 0.448161 5.539489 -52.454511 3.386879 5.308495 -65.054779 -0.000002 -0.000002 -0.000001 -0.052928 5.750364 -61.086289 4.057179 5.570193 -72.116928 -0.000002 0.000003 -0.000005 -6.585727 4.538461 -72.424198 3.301355 5.268022 -64.126898 -0.000001 -0.000003 0.000001 0.000001 -0.000001 0.000001 0.000001 -0.000001 0.000001 0.000001 -0.000001 0.000001 -0.000001 0.000001 -0.000000 -0.000001 0.000000 -0.000001 -0.000001 0.000001 -0.000000 -0.000001 0.000000 -0.000000 -41.168491 -8.638567 -9.930251 -46.819157 58.234166 100.956008 0.000148 98.306120 -0.000163 -52.551622 -17.169470 -29.224508 8.310644 -4.801480 11.012877 21.660043 -18.149092 -18.408313 0.000001 -0.000001 -0.000002 -0.922790 1.704464 12.416704 0.746755 -2.531359 32.867406 -0.000001 0.000000 0.000001 3.371434 -7.153433 51.652066 6.296591 -4.359659 110.632064 0.000000 0.000000 0.000000 -3.368105 -2.591496 57.036536 5.442655 -4.590576 99.720496 0.000000 0.000001 0.000001 -3.976814 -3.313020 64.591549 4.060233 -4.618817 82.627892 -0.000001 0.000001 0.000001 0.000001 -0.000001 -0.000003 -0.000000 -0.000001 -0.000001 0.000001 -0.000001 -0.000003 -0.000002 -0.000001 0.000003 -0.000002 0.000000 0.000003 -0.000002 -0.000001 0.000003 -0.000002 0.000000 0.000004 0.000003 0.000002 -0.000001 0.000003 0.000002 -0.000001 0.000003 0.000002 -0.000001 0.000003 0.000002 -0.000001 0.000003 0.000002 -0.000001 0.000003 0.000002 -0.000001 0.000003 0.000002 -0.000001 0.000000 0.000000 -0.000000 -0.000001 0.000001 -0.000000 
-1.796273 92.660583 3.100906 -14.938607 -29.164136 -5.857183 0.000001 -0.000000 0.000001 -21.634602 41.941494 31.700974 29.088222 -0.804771 -0.993021 -2.621966 1.936310 -6.190568 -0.000000 -0.000002 -0.000000 0.000000 -0.000001 0.000000 6.361080 5.318422 -7.037605 32.979582 0.141165 1.135126 -24.508186 -18.003930 5.277343 0.000000 0.000000 0.000000 0.000001 0.000001 -0.000001 7.879074 -0.033108 -0.269596 16.382501 -0.103801 -0.755616 16.382531 -0.171350 -0.731181 0.153568 2.997933 0.242120 0.153562 2.997937 0.242114 0.000001 -0.000000 0.000000 0.153650 2.997925 0.242116 0.153561 2.997937 0.242116 -0.000001 0.000001 -0.000000 0.000001 -0.000000 -0.000000 -37.569425 -4.667058 1.651164 -41.760839 -7.524124 -61.921027 0.000043 -64.177919 0.000060 -119.462932 1.212213 32.231058 4.709225 9.560380 3.111992 19.581621 -1.149541 7.603254 0.000003 -0.000002 -0.000003 -0.186814 3.964211 -36.682900 2.939115 5.077182 -60.110603 -0.000001 -0.000001 -0.000000 0.462837 5.554770 -52.531122 3.387033 5.308554 -65.056309 0.000000 0.000000 -0.000002 -0.040746 5.759205 -61.116335 4.060644 5.571307 -72.152780 0.000004 -0.000001 0.000003 -6.634771 4.518698 -72.405182 3.303314 5.268980 -64.148262 0.000001 -0.000007 0.000001 0.000000 0.000001 -0.000001 0.000000 0.000001 -0.000001 0.000000 0.000002 0.000000 -0.000000 0.000001 -0.000000 -0.000000 0.000000 -0.000001 -0.000000 0.000001 -0.000000 -0.000000 0.000000 -0.000000 -41.163139 -8.660598 -9.921937 -46.777527 58.216428 100.933626 -0.001265 98.178348 0.001251 -52.650155 -17.117574 -29.213989 8.230190 -4.677330 11.002012 21.703218 -18.112586 -18.440717 0.000003 -0.000001 -0.000000 -0.928485 1.747533 12.378895 0.746773 -2.531379 32.867820 0.000000 0.000000 0.000004 3.367684 -7.147122 51.729384 6.296694 -4.359601 110.633621 0.000000 0.000000 0.000000 -3.377976 -2.589275 57.067019 5.445551 -4.590079 99.756456 0.000000 0.000001 0.000000 -3.930050 -3.332238 64.569426 4.061607 -4.618989 82.645043 -0.000002 0.000003 -0.000000 -0.000000 0.000001 -0.000002 -0.000000 0.000001 -0.000000 -0.000000 0.000000 -0.000003 0.000003 -0.000003 -0.000003 0.000003 -0.000002 -0.000002 0.000003 -0.000003 -0.000003 0.000003 -0.000002 -0.000000 0.000002 0.000001 -0.000000 0.000002 0.000001 -0.000000 0.000002 0.000001 -0.000000 0.000002 0.000001 -0.000000 0.000002 0.000001 -0.000000 0.000002 0.000001 -0.000000 0.000002 0.000001 -0.000000 0.000000 -0.000001 -0.000000 0.000001 -0.000000 0.000001 
-1.792799 92.647949 3.122490 -14.932158 -29.210339 -5.826438 -0.000001 0.000000 -0.000000 -21.582310 41.968562 31.650478 29.108040 -0.770321 -0.994448 -2.662777 1.940316 -6.207490 0.000000 0.000000 -0.000000 0.000000 0.000003 -0.000000 6.299865 5.262362 -7.089537 33.080471 0.242180 1.082348 -24.562842 -18.010172 5.293187 0.000000 -0.000002 0.000000 -0.000002 -0.000001 -0.000000 7.845787 -0.000437 -0.273830 16.384277 -0.096936 -0.764396 16.384246 -0.166525 -0.748573 0.148683 2.995449 0.240177 0.148693 2.995451 0.240183 0.000001 -0.000001 0.000001 0.148757 2.995462 0.240168 0.148596 2.995431 0.240186 -0.000001 0.000002 -0.000000 0.000001 -0.000001 0.000000 -37.567550 -4.592719 1.666046 -41.874169 -7.779228 -61.963695 0.000023 -63.851532 0.000034 -119.495266 1.255204 32.130077 4.709222 9.560382 3.111991 19.601340 -1.045687 7.608762 0.000002 0.000002 -0.000006 -0.185692 3.965987 -36.686818 2.949275 5.082982 -60.225152 0.000001 -0.000001 -0.000000 0.471714 5.563543 -52.569528 3.388229 5.309116 -65.069238 -0.000002 0.000001 -0.000001 -0.031672 5.765412 -61.133383 4.064593 5.572567 -72.193371 0.000000 0.000001 0.000000 -6.657178 4.512727 -72.411220 3.307012 5.270755 -64.188410 -0.000002 -0.000003 0.000002 -0.000001 0.000004 -0.000002 -0.000001 0.000004 -0.000002 -0.000001 0.000005 -0.000001 -0.000001 -0.000001 -0.000001 -0.000001 -0.000002 -0.000000 -0.000001 -0.000001 -0.000001 -0.000001 -0.000002 -0.000001 -41.154164 -8.667398 -9.902574 -46.805415 58.210574 100.920703 0.000472 98.061087 -0.000475 -52.744462 -17.016250 -29.198683 8.203438 -4.635929 10.998483 21.753306 -18.057989 -18.469523 -0.000000 -0.000001 0.000001 -0.929233 1.749198 12.383089 0.751827 -2.539160 32.981915 -0.000001 0.000001 -0.000001 3.364283 -7.142811 51.768138 6.297702 -4.359227 110.646592 0.000000 -0.000000 0.000001 -3.385637 -2.586699 57.084464 5.448782 -4.589534 99.797137 0.000000 0.000002 0.000001 -3.907897 -3.343545 64.574104 4.064702 -4.619395 82.683381 0.000001 0.000003 0.000000 -0.000000 -0.000001 -0.000003 -0.000002 -0.000001 -0.000001 -0.000000 -0.000001 -0.000004 -0.000001 -0.000003 0.000001 -0.000001 -0.000002 0.000001 -0.000001 -0.000003 0.000001 -0.000001 -0.000002 0.000002 -0.000000 -0.000000 -0.000001 -0.000000 -0.000000 -0.000001 -0.000000 -0.000000 -0.000001 -0.000000 -0.000000 -0.000001 -0.000000 -0.000000 -0.000001 -0.000000 -0.000000 -0.000001 -0.000000 -0.000000 -0.000001 -0.000000 -0.000001 0.000000 -0.000001 0.000000 -0.000000 
